<svg width="46" height="45" viewBox="0 0 46 45" fill="none" xmlns="http://www.w3.org/2000/svg">
<path d="M8.26211 45C7.84789 45 7.51172 44.664 7.51172 44.25V43.0965C7.51172 40.458 9.54077 37.6005 12.0336 36.726L18.2033 34.569L18.61 31.314C18.661 30.9 19.0617 30.6015 19.4474 30.6615C19.8586 30.7125 20.1513 31.0875 20.1003 31.4985L19.635 35.2155C19.6005 35.4975 19.4084 35.7375 19.1383 35.8305L12.5288 38.142C10.6228 38.8095 9.0125 41.0805 9.0125 43.0965V44.25C9.0125 44.664 8.67632 45 8.26211 45Z" fill="white"/>
<path d="M36.777 45C36.3627 45 36.0266 44.664 36.0266 44.25V43.0965C36.0266 41.079 34.4162 38.8095 32.5102 38.1405L25.9008 35.829C25.6307 35.7345 25.4386 35.496 25.404 35.2155L24.9373 31.4955C24.8863 31.0845 25.1774 30.7095 25.5886 30.657C25.9953 30.6015 26.375 30.894 26.4276 31.308L26.8358 34.569L33.0055 36.726C35.4983 37.6005 37.5273 40.4595 37.5273 43.0965V44.25C37.5273 44.664 37.1912 45 36.777 45Z" fill="white"/>
<path d="M22.5195 33.0585C22.1053 33.0585 21.7691 32.7225 21.7691 32.3085C21.7691 31.8945 22.1053 31.5585 22.5195 31.5585C24.1929 31.5585 27.3085 31.5585 27.3235 23.352C27.3265 21.912 27.2215 20.5125 25.9218 19.212C25.1549 18.4455 24.0113 18.057 22.518 18.057C21.0248 18.057 19.8812 18.4455 19.1143 19.212C17.8161 20.5125 17.7095 21.912 17.7125 23.352C17.72 27.228 18.4269 29.7375 19.8136 30.813C20.1408 31.068 20.2008 31.5375 19.9472 31.866C19.6906 32.193 19.2223 32.25 18.8936 31.9995C17.0972 30.606 16.2208 27.78 16.2117 23.355C16.2087 21.732 16.3483 19.8585 18.0532 18.1515C19.1113 17.094 20.6135 16.557 22.518 16.557C24.4225 16.557 25.9248 17.0925 26.9829 18.1515C28.6877 19.8585 28.8273 21.732 28.8243 23.355C28.8108 30.066 26.8673 33.0585 22.5195 33.0585Z" fill="white"/>
<path d="M22.515 39.228C22.3319 39.228 22.1488 39.162 22.0048 39.0285L18.3804 35.673C18.0772 35.391 18.0577 34.9155 18.3399 34.6125C18.6235 34.3065 19.0977 34.293 19.4009 34.572L22.515 37.4565L25.6382 34.572C25.9458 34.29 26.4201 34.3095 26.6992 34.6125C26.9814 34.917 26.9618 35.3925 26.6572 35.673L23.0253 39.0285C22.8797 39.162 22.6981 39.228 22.515 39.228Z" fill="white"/>
<path d="M25.2404 23.8725C23.1063 23.8725 20.8852 23.121 19.6605 22.0215C19.3514 21.7425 19.3259 21.27 19.6035 20.9625C19.8812 20.655 20.3599 20.6295 20.6631 20.9055C22.1428 22.236 25.6877 22.932 27.7182 21.84C28.0814 21.642 28.5392 21.7815 28.7343 22.146C28.9309 22.5105 28.7928 22.9665 28.4281 23.1615C27.5036 23.6565 26.3855 23.8725 25.2404 23.8725Z" fill="white"/>
<path d="M11.2637 34.2C10.8495 34.2 10.5133 33.864 10.5133 33.45V30.7335C10.5133 30.4995 10.6228 30.2775 10.8104 30.1365C11.5758 29.5575 12.0141 28.6875 12.0141 27.75V25.5C12.0141 23.8455 10.6679 22.5 9.0125 22.5C7.35714 22.5 6.01094 23.8455 6.01094 25.5V27.75C6.01094 28.6875 6.44917 29.5575 7.21456 30.1365C7.40216 30.279 7.51172 30.4995 7.51172 30.7335V33.45C7.51172 33.864 7.17554 34.2 6.76133 34.2C6.34711 34.2 6.01094 33.864 6.01094 33.45V31.0875C5.05194 30.231 4.51016 29.034 4.51016 27.75V25.5C4.51016 23.019 6.53021 21 9.0125 21C11.4948 21 13.5148 23.019 13.5148 25.5V27.75C13.5148 29.0325 12.9731 30.2295 12.0141 31.0875V33.45C12.0141 33.864 11.6779 34.2 11.2637 34.2Z" fill="white"/>
<path d="M9.76739 32.1735C9.41921 32.1735 9.10705 31.929 9.03351 31.575C8.95097 31.1685 9.2121 30.7725 9.61882 30.6885C11.0055 30.405 12.0141 29.1675 12.0141 27.75C12.0141 27.336 12.3502 27 12.7645 27C13.1787 27 13.5148 27.336 13.5148 27.75C13.5148 29.8785 12.0021 31.731 9.91897 32.1585C9.86795 32.169 9.81842 32.1735 9.76739 32.1735Z" fill="white"/>
<path d="M0.758203 43.5C0.343988 43.5 0.0078125 43.164 0.0078125 42.75V38.955C0.0078125 36.8535 1.25346 34.962 3.18046 34.14L6.46267 32.7165C6.72231 32.6085 7.01796 32.6475 7.23858 32.8245L9.0155 34.2825L10.7924 32.838C11.01 32.6625 11.3057 32.6205 11.5623 32.7315L14.846 34.14C15.2272 34.302 15.4028 34.743 15.2392 35.124C15.0757 35.505 14.6314 35.6805 14.2547 35.517L11.3897 34.2885L9.48975 35.832C9.2136 36.057 8.8189 36.0555 8.53975 35.8305L6.63977 34.275L3.77477 35.5185C2.39706 36.105 1.50859 37.4535 1.50859 38.955V42.75C1.50859 43.164 1.17242 43.5 0.758203 43.5Z" fill="white"/>
<path d="M11.9225 26.865C10.4277 26.865 8.99899 26.3505 7.79086 25.3785C7.4682 25.1175 7.41717 24.6465 7.67681 24.324C7.93944 23.9985 8.41219 23.952 8.73185 24.21C9.69386 24.9855 10.8299 25.4265 12.0111 25.365C11.939 23.7735 10.6213 22.5 9.0125 22.5C7.35714 22.5 6.01094 23.8455 6.01094 25.5V26.055C6.01094 26.469 5.67476 26.805 5.26055 26.805C4.84633 26.805 4.51016 26.469 4.51016 26.055V25.5C4.51016 23.019 6.53021 21 9.0125 21C11.4948 21 13.5148 23.019 13.5148 25.5V26.025C13.5148 26.394 13.2462 26.7075 12.883 26.766C12.5363 26.82 12.2362 26.865 11.9225 26.865Z" fill="white"/>
<path d="M38.2777 34.2C37.8635 34.2 37.5273 33.864 37.5273 33.45V30.7335C37.5273 30.4995 37.6369 30.2775 37.8245 30.1365C38.5899 29.5575 39.0281 28.6875 39.0281 27.75V25.5C39.0281 23.8455 37.6819 22.5 36.0266 22.5C34.3712 22.5 33.025 23.8455 33.025 25.5V27.75C33.025 28.6875 33.4632 29.5575 34.2286 30.1365C34.4162 30.279 34.5258 30.4995 34.5258 30.7335V33.45C34.5258 33.864 34.1896 34.2 33.7754 34.2C33.3612 34.2 33.025 33.864 33.025 33.45V31.0875C32.066 30.231 31.5242 29.034 31.5242 27.75V25.5C31.5242 23.019 33.5443 21 36.0266 21C38.5089 21 40.5289 23.019 40.5289 25.5V27.75C40.5289 29.0325 39.9871 30.2295 39.0281 31.0875V33.45C39.0281 33.864 38.692 34.2 38.2777 34.2Z" fill="white"/>
<path d="M36.7815 32.1735C36.4333 32.1735 36.1211 31.929 36.0476 31.575C35.965 31.1685 36.2262 30.7725 36.6329 30.6885C38.0196 30.405 39.0281 29.1675 39.0281 27.75C39.0281 27.336 39.3643 27 39.7785 27C40.1927 27 40.5289 27.336 40.5289 27.75C40.5289 29.8785 39.0161 31.731 36.933 32.1585C36.882 32.169 36.8325 32.1735 36.7815 32.1735Z" fill="white"/>
<path d="M44.2809 43.5C43.8666 43.5 43.5305 43.164 43.5305 42.75V38.955C43.5305 37.4535 42.642 36.1065 41.2688 35.52L38.3993 34.275L36.5023 35.8305C36.2232 36.0555 35.8285 36.057 35.5523 35.832L33.6523 34.2885L30.7873 35.517C30.4076 35.682 29.9649 35.505 29.8028 35.124C29.6392 34.743 29.8148 34.302 30.196 34.14L33.4797 32.7315C33.7379 32.622 34.0335 32.6625 34.2496 32.838L36.0266 34.2825L37.8035 32.8245C38.0226 32.6475 38.3198 32.607 38.5794 32.7165L41.8646 34.1415C43.7856 34.962 45.0312 36.852 45.0312 38.955V42.75C45.0312 43.164 44.6951 43.5 44.2809 43.5Z" fill="white"/>
<path d="M34.7164 17.9925C34.3712 17.9925 34.059 17.7525 33.984 17.4C32.5207 10.644 28.197 4.842 22.1188 1.4835C21.7571 1.2825 21.6251 0.8265 21.8262 0.4635C22.0273 0.1005 22.482 -0.027 22.8467 0.171C29.3031 3.7395 33.897 9.903 35.4503 17.0835C35.5388 17.4885 35.2822 17.8875 34.8755 17.9745C34.8214 17.9865 34.7674 17.9925 34.7164 17.9925Z" fill="white"/>
<path d="M22.5195 10.5C17.0897 10.5 11.7169 9.738 6.54822 8.235C6.15051 8.1195 5.92089 7.7025 6.03795 7.305C6.15501 6.9075 6.56623 6.675 6.96844 6.7935C16.9621 9.7005 27.8623 9.72 37.8635 6.8535C38.2642 6.735 38.6784 6.969 38.791 7.368C38.9051 7.767 38.6754 8.181 38.2762 8.295C33.1766 9.759 27.8743 10.5 22.5195 10.5Z" fill="white"/>
<path d="M22.5195 15C22.1053 15 21.7691 14.664 21.7691 14.25V0.75C21.7691 0.336 22.1053 0 22.5195 0C22.9337 0 23.2699 0.336 23.2699 0.75V14.25C23.2699 14.664 22.9337 15 22.5195 15Z" fill="white"/>
<path d="M1.10488 27.153C0.749198 27.153 0.434034 26.8995 0.368 26.5365C0.129376 25.2105 0.0078125 23.8515 0.0078125 22.5C0.0078125 10.0935 10.1066 0 22.5195 0C34.9325 0 45.0312 10.0935 45.0312 22.5C45.0312 23.8245 44.9142 25.1565 44.6846 26.457C44.611 26.865 44.2133 27.144 43.8156 27.0645C43.4074 26.9925 43.1358 26.6025 43.2078 26.196C43.4224 24.9795 43.5305 23.736 43.5305 22.5C43.5305 10.92 34.1056 1.5 22.5195 1.5C10.9335 1.5 1.50859 10.92 1.50859 22.5C1.50859 23.7645 1.62115 25.032 1.84627 26.2695C1.91981 26.676 1.64817 27.0675 1.24145 27.141C1.19493 27.1485 1.15141 27.153 1.10488 27.153Z" fill="white"/>
<path d="M10.0465 19.5C10.009 19.5 9.97 19.497 9.93248 19.491C9.52277 19.4295 9.24062 19.047 9.30365 18.6375C10.4818 10.8825 15.3023 3.9795 22.1969 0.1695C22.5601 -0.0299999 23.0178 0.099 23.2174 0.462C23.4185 0.825 23.2864 1.281 22.9247 1.482C16.4339 5.0685 11.897 11.565 10.7879 18.8625C10.7324 19.233 10.4112 19.5 10.0465 19.5Z" fill="white"/>
<path d="M34.9925 19.5C34.6293 19.5 34.3082 19.233 34.2526 18.8625C33.1451 11.5665 28.6082 5.07 22.1188 1.4835C21.7571 1.2825 21.6251 0.8265 21.8262 0.4635C22.0273 0.1005 22.482 -0.027 22.8467 0.171C29.7413 3.981 34.5603 10.8855 35.7369 18.6375C35.7999 19.047 35.5178 19.4295 35.1081 19.491C35.0676 19.497 35.03 19.5 34.9925 19.5Z" fill="white"/>
</svg>
