<svg width="46" height="45" viewBox="0 0 46 45" fill="none" xmlns="http://www.w3.org/2000/svg">
<path d="M32.5682 29.5498L25.5483 33.6363C25.2798 33.7926 25.0076 33.9129 24.7272 33.9981C24.8135 33.8252 24.8842 33.638 24.938 33.4375C25.311 32.0458 24.4852 30.5933 23.0577 30.1309C23.0266 30.1208 22.9949 30.1128 22.9627 30.107C20.954 29.7449 18.9674 29.0271 17.3711 28.4504C16.8142 28.2492 16.2882 28.0591 15.8401 27.9139C14.0042 27.3186 12.3544 28.0499 10.9822 28.8438L5.84988 31.8136L5.4089 31.0349C4.93089 30.1909 3.85495 29.8929 3.01067 30.3705L1.04115 31.4846C0.196685 31.9622 -0.101597 33.0374 0.376417 33.8815L6.16695 44.1076C6.39797 44.5154 6.77496 44.8093 7.22873 44.935C7.38568 44.9785 7.5449 45 7.7033 45C8.00276 45 8.29832 44.923 8.56519 44.772L10.5348 43.6578C11.3793 43.1801 11.6775 42.1048 11.1994 41.261L10.6529 40.2958L11.7177 39.6814L20.6673 42.078C21.1725 42.2134 21.6751 42.2805 22.1694 42.2805C23.1695 42.2805 24.1357 42.0053 25.019 41.4618L37.7583 33.6217C38.9652 32.879 39.35 31.0109 38.5658 29.7022C38.186 29.0685 36.6309 27.185 32.5682 29.5498ZM9.81941 42.3946L7.8498 43.5088C7.70502 43.5907 7.51304 43.5377 7.43089 43.3927L1.64044 33.1667C1.55838 33.0217 1.61148 32.83 1.75645 32.748L3.72605 31.6339C3.77244 31.6077 3.82354 31.5953 3.87438 31.5953C3.98249 31.5953 4.08915 31.6514 4.14497 31.75L9.93551 41.9761C10.0176 42.1208 9.96447 42.3126 9.81941 42.3946ZM36.9968 32.3857L24.2576 40.2258C23.2723 40.8319 22.1908 40.9834 21.0433 40.6759L11.8031 38.2013C11.6171 38.1515 11.4188 38.1775 11.2521 38.2738L9.9376 39.0322L6.56545 33.077L11.7102 30.0999C12.8603 29.4344 14.1027 28.8764 15.3922 29.2945C15.8175 29.4323 16.3087 29.6099 16.8775 29.8153C18.5113 30.4057 20.5414 31.1392 22.6517 31.5258C23.329 31.7661 23.7076 32.419 23.5352 33.0617C23.3082 33.9084 22.5959 34.0134 22.0277 33.949C20.9999 33.7375 20.0212 33.4583 18.9856 33.1628C18.4921 33.0219 17.9819 32.8763 17.457 32.7357C17.0697 32.6321 16.6715 32.8618 16.5676 33.2489C16.4638 33.636 16.6938 34.034 17.0811 34.1378C17.5944 34.2753 18.099 34.4193 18.5868 34.5585C19.6602 34.8649 20.674 35.1543 21.7677 35.3778C21.7724 35.3788 21.777 35.379 21.7817 35.3799C21.7867 35.3808 21.7915 35.3823 21.7965 35.3831L22.6697 35.5249C24.0002 35.7376 25.1807 35.5301 26.2793 34.8906L33.2992 30.8041C35.2647 29.66 36.7677 29.5268 37.3197 30.448C37.6968 31.0774 37.5339 32.0552 36.9968 32.3857ZM4.24664 33.519C4.30283 33.9031 4.03686 34.2599 3.65253 34.3161C3.26828 34.3723 2.91118 34.1064 2.85499 33.7223C2.7988 33.3383 3.06477 32.9814 3.4491 32.9252C3.83344 32.869 4.19045 33.135 4.24664 33.519ZM20.2429 9.78582C19.5409 9.78582 18.9238 10.2338 18.7069 10.9013C18.4895 11.5698 18.7263 12.2959 19.2961 12.7081L22.0609 14.7076C22.1238 14.7532 22.1444 14.8163 22.1201 14.8902L21.0592 18.1322C20.8407 18.8004 21.0762 19.5269 21.6451 19.9399C21.9292 20.1462 22.2619 20.2493 22.5945 20.2493C22.9282 20.2493 23.2619 20.1455 23.5464 19.9381L26.3035 17.9279C26.3663 17.8821 26.4328 17.8823 26.4954 17.9279L29.2525 19.9381C29.8208 20.3524 30.585 20.3531 31.1539 19.9398C31.7228 19.5266 31.9581 18.8001 31.7396 18.132L30.6787 14.8902C30.6546 14.8163 30.6751 14.7533 30.738 14.7077L33.5028 12.7081C34.0727 12.2961 34.3095 11.5699 34.0921 10.9014C33.875 10.2338 33.2581 9.78591 32.556 9.78591C32.5549 9.78591 32.5539 9.78591 32.5528 9.78591L29.14 9.79244C29.14 9.79244 29.1397 9.79244 29.1396 9.79244C29.062 9.79244 29.0087 9.75352 28.9848 9.67967L27.9364 6.43373C27.7203 5.76473 27.1026 5.31528 26.3991 5.31528C25.6959 5.31537 25.0782 5.76482 24.862 6.43373L23.8138 9.67967C23.7898 9.75343 23.7363 9.79244 23.6588 9.79244C23.6587 9.79244 23.6584 9.79244 23.6584 9.79244L20.2457 9.78591C20.2451 9.78582 20.244 9.78582 20.2429 9.78582ZM23.6592 11.244C24.3626 11.244 24.98 10.7949 25.1964 10.1257L26.2447 6.87973C26.2686 6.80597 26.3222 6.76687 26.3997 6.76687C26.4772 6.76687 26.5307 6.80579 26.5546 6.87955L27.603 10.1255C27.8191 10.7949 28.4365 11.2441 29.1401 11.2441H29.1433L32.5561 11.2376H32.5566C32.6339 11.2376 32.6873 11.2765 32.7112 11.3501C32.7352 11.4238 32.7147 11.4867 32.6519 11.5322L29.8872 13.5317C29.316 13.9446 29.0797 14.6719 29.2988 15.3415L30.3596 18.5832C30.3838 18.657 30.3633 18.72 30.3007 18.7656C30.238 18.8112 30.1716 18.8109 30.1089 18.7654L27.3519 16.7553C26.7826 16.3402 26.0175 16.3402 25.448 16.7553L22.6908 18.7655C22.6283 18.8112 22.5618 18.8111 22.4991 18.7656C22.4365 18.72 22.416 18.657 22.4401 18.5834L23.501 15.3415C23.72 14.6722 23.4837 13.9449 22.9128 13.5318L20.148 11.5322C20.0852 11.4868 20.0646 11.4238 20.0886 11.3499C20.1126 11.2763 20.1661 11.2375 20.2433 11.2375H20.2438L23.6565 11.244H23.6592ZM25.6734 3.3833V0.725796C25.6734 0.324975 25.9985 0 26.3996 0C26.8006 0 27.1258 0.324975 27.1258 0.725796V3.3833C27.1258 3.78412 26.8006 4.1091 26.3996 4.1091C25.9985 4.1091 25.6734 3.78421 25.6734 3.3833ZM32.5364 6.64965C32.2528 6.36623 32.2528 5.90671 32.5364 5.62329L34.4166 3.74411C34.7004 3.46069 35.1601 3.46078 35.4436 3.74411C35.7272 4.02753 35.7272 4.48705 35.4436 4.77048L33.5634 6.64965C33.4216 6.79137 33.2357 6.86222 33.0499 6.86222C32.864 6.86231 32.6782 6.79137 32.5364 6.64965ZM17.3557 4.77057C17.0721 4.48714 17.0721 4.02762 17.3557 3.7442C17.6393 3.46087 18.099 3.46069 18.3827 3.7442L20.2629 5.62338C20.5465 5.9068 20.5465 6.36632 20.2629 6.64974C20.1211 6.79146 19.9353 6.86231 19.7494 6.86231C19.5636 6.86231 19.3777 6.79146 19.2359 6.64974L17.3557 4.77057ZM45.102 17.523C44.9121 16.9385 44.3719 16.5462 43.7574 16.5462C43.7564 16.5462 43.7554 16.5462 43.7544 16.5462L41.1411 16.5512L40.3384 14.0657C40.1492 13.4799 39.6084 13.0865 38.9925 13.0865C38.3767 13.0866 37.8359 13.48 37.6468 14.0657L36.844 16.5512L34.2308 16.5462C34.2297 16.5462 34.2289 16.5462 34.2279 16.5462C33.6133 16.5462 33.0732 16.9384 32.8831 17.523C32.6928 18.1083 32.9001 18.744 33.399 19.1048L35.5161 20.6359L34.7039 23.1183C34.5125 23.7033 34.7185 24.3395 35.2167 24.7012C35.4654 24.8818 35.7567 24.9721 36.048 24.9721C36.3402 24.9721 36.6324 24.8813 36.8815 24.6997L38.9927 23.1604L41.104 24.6997C41.6015 25.0625 42.2706 25.0629 42.7687 24.7012C43.2667 24.3395 43.4728 23.7034 43.2815 23.1184L42.4692 20.636L44.5862 19.1049C45.085 18.744 45.2924 18.1082 45.102 17.523ZM41.5952 19.4762C41.095 19.8377 40.888 20.4745 41.0799 21.0607L41.8641 23.4573L39.826 21.9713C39.3274 21.6078 38.6576 21.6079 38.1591 21.9713L36.121 23.4573L36.9052 21.0606C37.0969 20.4745 36.8899 19.8377 36.39 19.4763L34.3461 17.9981L36.8689 18.0029H36.8717C37.4875 18.0029 38.0281 17.6097 38.2175 17.0237L38.9925 14.6242L39.7674 17.0238C39.9568 17.6098 40.4973 18.003 41.1132 18.003H41.116L43.6388 17.9982L41.5952 19.4762ZM8.16824 19.1048L10.2854 20.6359L9.47311 23.1183C9.28167 23.7033 9.48772 24.3395 9.98589 24.7012C10.2347 24.8819 10.526 24.9722 10.8172 24.9722C11.1094 24.9722 11.4015 24.8814 11.6506 24.6997L13.7619 23.1604L15.8732 24.6997C16.3706 25.0625 17.0397 25.0629 17.5379 24.7012C18.0359 24.3395 18.242 23.7034 18.0507 23.1184L17.2384 20.636L19.3554 19.1049C19.8543 18.744 20.0617 18.1084 19.8715 17.5229C19.6813 16.9384 19.1411 16.5463 18.5268 16.5463C18.5258 16.5463 18.5248 16.5463 18.5238 16.5463L15.9105 16.5513L15.1078 14.0657C14.9186 13.48 14.3778 13.0866 13.7619 13.0866C13.1461 13.0866 12.6053 13.4801 12.4162 14.0657L11.6134 16.5513L9.00027 16.5463C8.99918 16.5463 8.99836 16.5463 8.99736 16.5463C8.38283 16.5463 7.84254 16.9384 7.65246 17.5231C7.46202 18.1083 7.66944 18.744 8.16824 19.1048ZM11.6382 18.0029H11.641C12.257 18.0029 12.7977 17.6096 12.9868 17.0237L13.7618 14.6242L14.5367 17.0238C14.7261 17.6098 15.2666 18.003 15.8825 18.003H15.8853L18.4081 17.9982L16.3642 19.4764C15.8642 19.8379 15.6572 20.4747 15.8491 21.0608L16.6333 23.4574L14.5952 21.9714C14.3459 21.7897 14.0538 21.6988 13.7617 21.6988C13.4696 21.6988 13.1775 21.7897 12.9282 21.9714L10.8901 23.4574L11.6743 21.0608C11.866 20.4747 11.659 19.8379 11.1591 19.4765L9.11519 17.9983L11.6382 18.0029Z" fill="white"/>
</svg>
