<svg width="35" height="45" viewBox="0 0 35 45" fill="none" xmlns="http://www.w3.org/2000/svg">
<path d="M34.8474 40.5454L29.8232 27.1821C30.3196 26.8819 30.7511 26.4835 31.0918 26.0107C31.4579 25.5017 31.7084 24.9174 31.8256 24.2992C31.9429 23.6811 31.9238 23.0444 31.7699 22.4346C31.6398 21.9013 31.6617 21.3417 31.833 20.8205C32.0043 20.2993 32.318 19.8378 32.7378 19.4896C33.2238 19.0866 33.6152 18.5794 33.8836 18.0047C34.1521 17.43 34.291 16.8021 34.2902 16.1664C34.2894 15.5308 34.149 14.9032 33.8791 14.3292C33.6092 13.7552 33.2166 13.249 32.7296 12.8472C32.3113 12.4976 31.9994 12.0353 31.83 11.5138C31.6606 10.9923 31.6405 10.433 31.7722 9.90047C31.9249 9.29168 31.9431 8.65633 31.8255 8.03961C31.708 7.42289 31.4576 6.83995 31.0921 6.33222C30.7174 5.81068 30.2335 5.37916 29.6751 5.06839C29.1166 4.75761 28.4973 4.57524 27.8613 4.53425C27.3141 4.49699 26.7879 4.30646 26.3416 3.98396C25.8953 3.66146 25.5465 3.21972 25.3342 2.70814C25.0966 2.12251 24.7354 1.59638 24.2761 1.16646C23.8167 0.736551 23.2702 0.413206 22.6746 0.218989C22.0704 0.0191557 21.4305 -0.0449869 20.7993 0.0310328C20.1682 0.107052 19.561 0.321405 19.0201 0.659149C18.5485 0.950633 18.0066 1.10486 17.4539 1.10486C16.9013 1.10486 16.3593 0.950633 15.8877 0.659149C15.3469 0.321392 14.7397 0.107031 14.1085 0.0310113C13.4774 -0.0450086 12.8374 0.0191414 12.2333 0.218989C11.6379 0.413365 11.0916 0.73677 10.6324 1.16666C10.1732 1.59655 9.81223 2.12258 9.57462 2.70807C9.36169 3.22061 9.01185 3.663 8.5643 3.98566C8.11676 4.30831 7.58922 4.49847 7.04083 4.53481C6.40585 4.57644 5.78774 4.75914 5.23049 5.0699C4.67324 5.38067 4.19053 5.81185 3.81672 6.33278C3.45068 6.84173 3.20012 7.4261 3.08291 8.04424C2.9657 8.66238 2.98473 9.29906 3.13864 9.90891C3.26872 10.4422 3.24685 11.0018 3.07555 11.523C2.90425 12.0442 2.59054 12.5057 2.17072 12.854C1.68476 13.2569 1.2934 13.7641 1.02494 14.3388C0.756469 14.9135 0.617608 15.5414 0.618393 16.1771C0.619178 16.8127 0.759589 17.4403 1.02947 18.0143C1.29936 18.5883 1.69197 19.0945 2.17892 19.4962C2.59717 19.8459 2.90905 20.3081 3.07848 20.8296C3.24791 21.351 3.26797 21.9103 3.13635 22.4428C2.98368 23.0516 2.96547 23.6869 3.08301 24.3036C3.20056 24.9204 3.45097 25.5033 3.81645 26.011C4.15728 26.4835 4.58879 26.8817 5.08518 27.1817L0.0611869 40.5454C0.013842 40.671 0.00312395 40.8078 0.0303042 40.9394C0.0574844 41.071 0.121422 41.192 0.214529 41.2879C0.307635 41.3839 0.426001 41.4508 0.555579 41.4808C0.685157 41.5107 0.820506 41.5024 0.945563 41.4569L6.41772 39.467L9.1986 44.633C9.25828 44.744 9.34646 44.8367 9.45384 44.9013C9.56123 44.9659 9.68385 45 9.80878 45C9.82442 45 9.83999 44.9993 9.85563 44.9983C9.98825 44.9892 10.1155 44.9419 10.2224 44.8619C10.3292 44.7818 10.4111 44.6725 10.4584 44.5468L15.1621 32.0423C15.4146 31.9457 15.6578 31.8257 15.8884 31.6838C16.3599 31.3924 16.9018 31.2383 17.4543 31.2383C18.0068 31.2383 18.5486 31.3924 19.0201 31.6838L19.0208 31.6841C19.2509 31.8242 19.4932 31.9425 19.7447 32.0375L24.4502 44.5462C24.4975 44.6719 24.5794 44.7812 24.6862 44.8612C24.793 44.9413 24.9203 44.9886 25.0529 44.9977C25.0686 44.9987 25.0841 44.9994 25.0998 44.9994C25.2247 44.9994 25.3473 44.9653 25.4547 44.9007C25.5621 44.8361 25.6503 44.7434 25.71 44.6323L28.4908 39.4664L33.963 41.4562C34.0881 41.5018 34.2234 41.5101 34.353 41.4801C34.4826 41.4502 34.6009 41.3833 34.694 41.2873C34.7871 41.1913 34.8511 41.0704 34.8783 40.9388C34.9054 40.8071 34.8947 40.671 34.8474 40.5454ZM9.69681 42.618L7.35374 38.2656C7.27437 38.1184 7.1456 38.0047 6.99065 37.945C6.83571 37.8853 6.66479 37.8836 6.50871 37.9401L1.89722 39.6167L6.37616 27.7041C6.59698 27.7564 6.82145 27.7915 7.04757 27.809C7.59478 27.8463 8.12096 28.0368 8.56725 28.3593C9.01353 28.6818 9.36233 29.1235 9.57462 29.6351C9.81226 30.2207 10.1733 30.7468 10.6326 31.1767C11.092 31.6066 11.6384 31.9299 12.234 32.1242C12.6635 32.2645 13.1118 32.337 13.5632 32.3392L9.69681 42.618ZM15.1574 30.4874C14.7884 30.7179 14.3742 30.8641 13.9436 30.9159C13.513 30.9676 13.0764 30.9237 12.6643 30.7871C12.2608 30.6558 11.8905 30.4371 11.5791 30.1462C11.2677 29.8553 11.0228 29.4992 10.8615 29.1027C10.5493 28.3474 10.0353 27.695 9.37709 27.2186C8.71892 26.7422 7.9426 26.4607 7.13515 26.4056C6.70342 26.3775 6.28309 26.2537 5.90405 26.0427C5.52501 25.8317 5.19657 25.5389 4.94207 25.185C4.6959 24.8428 4.52744 24.4498 4.44872 24.0341C4.37 23.6184 4.38296 23.1903 4.48668 22.7803C4.68046 21.9888 4.64893 21.1579 4.39575 20.3838C4.14256 19.6096 3.67804 18.9237 3.05586 18.4053C2.72785 18.1343 2.46365 17.7927 2.28248 17.4054C2.10131 17.0181 2.00771 16.5949 2.00849 16.1664C2.00927 15.738 2.1044 15.3151 2.28698 14.9285C2.46956 14.5419 2.735 14.2013 3.06399 13.9314C3.68467 13.4118 4.14741 12.7251 4.39881 11.9508C4.6502 11.1764 4.67999 10.3459 4.48473 9.55516C4.38222 9.14615 4.37006 8.71931 4.44913 8.30501C4.5282 7.89071 4.69655 7.49912 4.94221 7.15812C5.19769 6.80343 5.52737 6.51011 5.90774 6.29908C6.28811 6.08804 6.70981 5.96448 7.1428 5.9372C7.94897 5.88103 8.72379 5.59903 9.38057 5.12276C10.0373 4.64649 10.5502 3.99473 10.8616 3.24041C11.0228 2.84388 11.2677 2.48775 11.5791 2.19688C11.8905 1.90601 12.2609 1.68743 12.6644 1.55641C13.0766 1.41992 13.5133 1.37603 13.944 1.42778C14.3747 1.47954 14.7891 1.62571 15.1582 1.85609C15.8498 2.28332 16.6444 2.50937 17.4548 2.50937C18.2651 2.50937 19.0597 2.28332 19.7513 1.85609C20.1204 1.62576 20.5346 1.47963 20.9652 1.42787C21.3957 1.37612 21.8323 1.41998 22.2444 1.55641C22.6479 1.68766 23.0182 1.90636 23.3296 2.19727C23.641 2.48817 23.8859 2.84428 24.0472 3.24077C24.3594 3.99608 24.8734 4.6485 25.5316 5.12488C26.1898 5.60127 26.9661 5.88279 27.7735 5.93791C28.2053 5.96593 28.6256 6.08983 29.0046 6.30078C29.3837 6.51174 29.7121 6.80457 29.9666 7.15847C30.2128 7.50068 30.3813 7.89365 30.46 8.30933C30.5387 8.72502 30.5257 9.15315 30.422 9.56318C30.2282 10.3547 30.2598 11.1855 30.513 11.9597C30.7661 12.7338 31.2307 13.4197 31.8528 13.9381C32.1809 14.2092 32.445 14.5508 32.6262 14.938C32.8074 15.3253 32.901 15.7486 32.9002 16.177C32.8994 16.6055 32.8043 17.0284 32.6217 17.415C32.4391 17.8016 32.1737 18.1422 31.8447 18.412C31.224 18.9316 30.7613 19.6183 30.5099 20.3926C30.2585 21.1669 30.2286 21.9974 30.4238 22.7881C30.5264 23.1971 30.5385 23.6239 30.4594 24.0382C30.3804 24.4526 30.212 24.8441 29.9663 25.1851C29.7109 25.5398 29.3812 25.8332 29.0008 26.0442C28.6205 26.2552 28.1987 26.3788 27.7658 26.4061C26.9596 26.4622 26.1848 26.7442 25.528 27.2205C24.8712 27.6968 24.3584 28.3485 24.0469 29.1028C23.8857 29.4994 23.6409 29.8555 23.3295 30.1464C23.0181 30.4372 22.6477 30.6558 22.2441 30.7868C21.832 30.9237 21.3952 30.9679 20.9645 30.9161C20.5337 30.8643 20.1193 30.7179 19.7504 30.4872C19.0588 30.06 18.2641 29.834 17.4538 29.834C16.6435 29.8341 15.8489 30.0601 15.1574 30.4874ZM28.3999 37.9399C28.2438 37.8832 28.0728 37.8849 27.9179 37.9446C27.7629 38.0043 27.6341 38.118 27.5548 38.2653L25.2117 42.6177L21.3459 32.3408C21.7971 32.3382 22.2453 32.2652 22.6746 32.1246C23.2702 31.9303 23.8168 31.6068 24.2762 31.1769C24.7356 30.7469 25.0968 30.2208 25.3346 29.6351C25.5473 29.1225 25.897 28.6801 26.3444 28.3574C26.7919 28.0347 27.3194 27.8446 27.8677 27.8084C28.0917 27.791 28.314 27.7563 28.5327 27.7045L33.0113 39.6165L28.3999 37.9399Z" fill="white"/>
<path d="M27.88 16.1716C27.88 14.0856 27.2685 12.0465 26.1229 10.312C24.9773 8.57761 23.3491 7.22578 21.444 6.4275C19.539 5.62923 17.4427 5.42036 15.4203 5.82732C13.3979 6.23427 11.5403 7.23878 10.0822 8.7138C8.62415 10.1888 7.6312 12.0681 7.22893 14.114C6.82665 16.1599 7.03311 18.2806 7.82221 20.2078C8.6113 22.135 9.94759 23.7822 11.6621 24.9411C13.3766 26.1 15.3923 26.7186 17.4543 26.7186C20.2184 26.7155 22.8684 25.6033 24.823 23.626C26.7775 21.6488 27.8769 18.9679 27.88 16.1716ZM17.4543 25.3123C15.6672 25.3123 13.9203 24.7762 12.4344 23.7718C10.9485 22.7675 9.79037 21.3399 9.10648 19.6696C8.4226 17.9994 8.24367 16.1615 8.59231 14.3884C8.94095 12.6152 9.8015 10.9865 11.0652 9.70817C12.3288 8.42982 13.9388 7.55925 15.6915 7.20656C17.4443 6.85386 19.261 7.03488 20.912 7.72672C22.5631 8.41856 23.9743 9.59014 24.9671 11.0933C25.9599 12.5965 26.4899 14.3638 26.4899 16.1716C26.4872 18.5951 25.5343 20.9184 23.8404 22.6321C22.1465 24.3457 19.8498 25.3096 17.4543 25.3123Z" fill="white"/>
<path d="M22.982 13.8401L19.593 13.3419L18.0774 10.2355C18.0134 10.1259 17.9223 10.035 17.8131 9.97186C17.7038 9.90873 17.5801 9.87553 17.4543 9.87553C17.3284 9.87553 17.2048 9.90873 17.0955 9.97186C16.9862 10.035 16.8951 10.1259 16.8312 10.2355L15.3156 13.3419L11.9265 13.8401C11.7981 13.8589 11.6774 13.9137 11.5782 13.9982C11.479 14.0828 11.4051 14.1938 11.365 14.3186C11.3249 14.4434 11.3201 14.5771 11.3512 14.7045C11.3823 14.832 11.448 14.9481 11.541 15.0397L13.994 17.4577L13.415 20.8721C13.3932 21.0014 13.4075 21.1342 13.4563 21.2556C13.5052 21.377 13.5866 21.4822 13.6914 21.5593C13.7962 21.6364 13.9203 21.6823 14.0495 21.6919C14.1788 21.7014 14.3081 21.6742 14.4228 21.6134L17.4543 20.0014L20.4856 21.6134C20.6004 21.6742 20.7297 21.7014 20.8589 21.6919C20.9882 21.6823 21.1122 21.6364 21.217 21.5593C21.3218 21.4822 21.4032 21.377 21.4521 21.2556C21.5009 21.1342 21.5152 21.0014 21.4934 20.8721L20.9144 17.4577L23.3674 15.0397C23.4604 14.9481 23.5261 14.832 23.5572 14.7045C23.5883 14.5771 23.5835 14.4434 23.5434 14.3186C23.5033 14.1938 23.4294 14.0828 23.3302 13.9982C23.231 13.9137 23.1105 13.8589 22.982 13.8401ZM19.6827 16.7089C19.6021 16.7885 19.5418 16.8868 19.507 16.9952C19.4723 17.1036 19.464 17.219 19.483 17.3313L19.8855 19.7058L17.7773 18.5848C17.6777 18.5318 17.5667 18.504 17.4541 18.504C17.3415 18.504 17.2306 18.5318 17.1309 18.5848L15.023 19.7055L15.4255 17.331C15.4445 17.2187 15.4363 17.1033 15.4015 16.9949C15.3668 16.8865 15.3065 16.7883 15.2259 16.7086L13.5203 15.027L15.877 14.6806C15.9886 14.6642 16.0945 14.6206 16.1857 14.5535C16.2769 14.4865 16.3505 14.398 16.4003 14.2957L17.4543 12.1357L18.5084 14.2958C18.5582 14.3981 18.6318 14.4866 18.723 14.5537C18.8142 14.6207 18.9201 14.6643 19.0317 14.6807L21.3884 15.0271L19.6827 16.7089Z" fill="white"/>
</svg>
