<svg width="60" height="60" viewBox="0 0 60 60" fill="none" xmlns="http://www.w3.org/2000/svg">
<path d="M55.1613 46.4516H32.8065C32.6994 46.0201 32.4948 45.6188 32.2084 45.2787L26.8635 39.0484C26.7728 38.9423 26.6602 38.8571 26.5334 38.7986C26.4066 38.7401 26.2687 38.7098 26.129 38.7097H15.4839V37.7419C15.4839 37.4853 15.3819 37.2391 15.2004 37.0576C15.0189 36.8761 14.7728 36.7742 14.5161 36.7742H0.967742C0.711081 36.7742 0.464932 36.8761 0.283445 37.0576C0.101958 37.2391 0 37.4853 0 37.7419V59.0323C0 59.2889 0.101958 59.5351 0.283445 59.7166C0.464932 59.898 0.711081 60 0.967742 60H8.70968C8.96634 60 9.21249 59.898 9.39397 59.7166C9.57546 59.5351 9.67742 59.2889 9.67742 59.0323V58.0645H14.5161C14.7728 58.0645 15.0189 57.9626 15.2004 57.7811C15.3819 57.5996 15.4839 57.3534 15.4839 57.0968V56.129H21.9677L27.5303 59.8374C27.6885 59.9429 27.8743 59.9995 28.0645 60C28.1341 59.9998 28.2035 59.9923 28.2716 59.9777L59.2394 53.2035C59.455 53.1563 59.6479 53.0368 59.7863 52.8648C59.9246 52.6929 60 52.4788 60 52.2581V51.2903C59.9985 50.0075 59.4882 48.7776 58.5811 47.8705C57.674 46.9634 56.4441 46.4531 55.1613 46.4516ZM7.74194 58.0645H1.93548V38.7097H7.74194V58.0645ZM13.5484 56.129H9.67742V38.7097H13.5484V56.129ZM58.0645 51.4839L28.2581 57.9997L22.7942 54.3561C22.6353 54.2506 22.4488 54.194 22.2581 54.1935H15.4839V40.6452H25.6839L30.7345 46.5377C30.885 46.7132 30.9677 46.9366 30.9677 47.1677V48.3871C30.9677 48.6438 30.8658 48.8899 30.6843 49.0714C30.5028 49.2529 30.2567 49.3548 30 49.3548H28.8668C28.7395 49.3549 28.6135 49.3299 28.496 49.2813C28.3784 49.2326 28.2716 49.1613 28.1816 49.0713L23.91 44.7997L22.5416 46.1681L26.8132 50.4397C27.0822 50.7103 27.4022 50.9249 27.7547 51.0709C28.1072 51.217 28.4852 51.2915 28.8668 51.2903H30C30.77 51.2903 31.5084 50.9844 32.0529 50.44C32.5973 49.8955 32.9032 49.1571 32.9032 48.3871H55.1613C55.9313 48.3871 56.6697 48.693 57.2142 49.2374C57.7586 49.7819 58.0645 50.5203 58.0645 51.2903V51.4839Z" fill="#3F5AF3"/>
<path d="M59.0323 29.0323H57.0968V7.74194C57.0968 6.97195 56.7909 6.23351 56.2464 5.68904C55.702 5.14458 54.9635 4.83871 54.1935 4.83871H47.3671C47.3532 4.81501 47.338 4.79207 47.3216 4.77L44.5848 2.03226C44.4034 1.85083 44.1573 1.74892 43.9006 1.74892C43.644 1.74892 43.3979 1.85083 43.2165 2.03226L42.2119 3.03677C41.7098 2.77429 41.1855 2.55667 40.6452 2.38645V0.967742C40.6452 0.711081 40.5432 0.464932 40.3617 0.283445C40.1802 0.101958 39.9341 0 39.6774 0H35.8064C35.5498 0 35.3036 0.101958 35.1222 0.283445C34.9407 0.464932 34.8387 0.711081 34.8387 0.967742V2.38645C34.2983 2.55667 33.774 2.77429 33.2719 3.03677L32.2674 2.03226C32.0859 1.85083 31.8398 1.74892 31.5832 1.74892C31.3266 1.74892 31.0805 1.85083 30.899 2.03226L28.1613 4.77C28.1452 4.79209 28.1304 4.81503 28.1168 4.83871H21.2903C20.5203 4.83871 19.7819 5.14458 19.2374 5.68904C18.693 6.23351 18.3871 6.97195 18.3871 7.74194V13.5484H0.967742C0.711081 13.5484 0.464932 13.6503 0.283445 13.8318C0.101958 14.0133 0 14.2595 0 14.5161V26.129C0 26.3857 0.101958 26.6318 0.283445 26.8133C0.464932 26.9948 0.711081 27.0968 0.967742 27.0968H18.3871V29.0323H16.4516C16.195 29.0323 15.9488 29.1342 15.7673 29.3157C15.5858 29.4972 15.4839 29.7433 15.4839 30V33.871C15.4839 34.6409 15.7897 35.3794 16.3342 35.9239C16.8787 36.4683 17.6171 36.7742 18.3871 36.7742H57.0968C57.8668 36.7742 58.6052 36.4683 59.1497 35.9239C59.6941 35.3794 60 34.6409 60 33.871V30C60 29.7433 59.898 29.4972 59.7166 29.3157C59.5351 29.1342 59.2889 29.0323 59.0323 29.0323ZM55.1613 7.74194V29.0323H53.2258V9.67742C53.2258 9.42076 53.1238 9.17461 52.9424 8.99312C52.7609 8.81164 52.5147 8.70968 52.2581 8.70968H46.9684C46.7982 8.16929 46.5806 7.64499 46.3181 7.1429L46.6868 6.77419H54.1935C54.4502 6.77419 54.6964 6.87615 54.8778 7.05764C55.0593 7.23913 55.1613 7.48527 55.1613 7.74194ZM25.1613 26.129V14.5161C25.1613 14.2595 25.0593 14.0133 24.8778 13.8318C24.6964 13.6503 24.4502 13.5484 24.1935 13.5484V10.6452H26.129V13.5484C26.129 13.805 26.231 14.0512 26.4125 14.2327C26.594 14.4142 26.8401 14.5161 27.0968 14.5161H28.5155C28.6857 15.0565 28.9033 15.5808 29.1658 16.0829L28.1613 17.0874C27.9799 17.2689 27.8779 17.515 27.8779 17.7716C27.8779 18.0282 27.9799 18.2743 28.1613 18.4558L30.899 21.1935C31.0805 21.375 31.3266 21.4769 31.5832 21.4769C31.8398 21.4769 32.0859 21.375 32.2674 21.1935L33.2719 20.189C33.774 20.4516 34.2983 20.6692 34.8387 20.8394V22.2581C34.8387 22.5147 34.9407 22.7609 35.1222 22.9424C35.3036 23.1238 35.5498 23.2258 35.8064 23.2258H39.6774C39.9341 23.2258 40.1802 23.1238 40.3617 22.9424C40.5432 22.7609 40.6452 22.5147 40.6452 22.2581V20.8394C41.1856 20.6689 41.7099 20.4509 42.2119 20.1881L43.2165 21.1935C43.3979 21.375 43.644 21.4769 43.9006 21.4769C44.1573 21.4769 44.4034 21.375 44.5848 21.1935L47.3226 18.4558C47.504 18.2743 47.6059 18.0282 47.6059 17.7716C47.6059 17.515 47.504 17.2689 47.3226 17.0874L46.319 16.0829C46.5812 15.5808 46.7985 15.0565 46.9684 14.5161H48.3871C48.6438 14.5161 48.8899 14.4142 49.0714 14.2327C49.2529 14.0512 49.3548 13.805 49.3548 13.5484V10.6452H51.2903V29.0323H24.1935V27.0968C24.4502 27.0968 24.6964 26.9948 24.8778 26.8133C25.0593 26.6318 25.1613 26.3857 25.1613 26.129ZM30.1994 9.89226C30.3924 9.04387 30.7285 8.23455 31.1932 7.49903C31.3104 7.31329 31.3609 7.09322 31.3365 6.87497C31.312 6.65672 31.2141 6.45328 31.0587 6.29806L30.2148 5.45419L31.5832 4.08581L32.4271 4.92968C32.5823 5.08504 32.7858 5.18299 33.004 5.20744C33.2223 5.23188 33.4423 5.18137 33.6281 5.06419C34.3636 4.59942 35.1729 4.26332 36.0213 4.07032C36.2353 4.0216 36.4264 3.90157 36.5632 3.72995C36.7 3.55832 36.7744 3.34529 36.7742 3.12581V1.93548H38.7097V3.12581C38.7095 3.34529 38.7839 3.55832 38.9207 3.72995C39.0575 3.90157 39.2486 4.0216 39.4626 4.07032C40.311 4.26332 41.1203 4.59942 41.8558 5.06419C42.0415 5.18137 42.2616 5.23188 42.4799 5.20744C42.6981 5.18299 42.9016 5.08504 43.0568 4.92968L43.9006 4.08581L45.269 5.45419L44.4252 6.29806C44.2698 6.45328 44.1718 6.65672 44.1474 6.87497C44.123 7.09322 44.1735 7.31329 44.2906 7.49903C44.7554 8.23455 45.0915 9.04387 45.2845 9.89226C45.3332 10.1063 45.4533 10.2973 45.6249 10.4342C45.7965 10.571 46.0095 10.6454 46.229 10.6452H47.4194V12.5806H46.229C46.0095 12.5804 45.7965 12.6548 45.6249 12.7916C45.4533 12.9285 45.3332 13.1195 45.2845 13.3335C45.0915 14.1819 44.7554 14.9913 44.2906 15.7268C44.1735 15.9125 44.123 16.1326 44.1474 16.3508C44.1718 16.5691 44.2698 16.7725 44.4252 16.9277L45.269 17.7716L43.9006 19.14L43.0568 18.2961C42.9016 18.141 42.6984 18.0432 42.4803 18.0188C42.2623 17.9943 42.0424 18.0447 41.8568 18.1616C41.1211 18.6261 40.3118 18.9622 39.4635 19.1555C39.2495 19.204 39.0583 19.3238 38.9214 19.4952C38.7844 19.6667 38.7097 19.8796 38.7097 20.099V21.2903H36.7742V20.099C36.7741 19.8796 36.6995 19.6667 36.5625 19.4952C36.4255 19.3238 36.2343 19.204 36.0203 19.1555C35.172 18.9622 34.3628 18.6261 33.6271 18.1616C33.4414 18.0447 33.2216 17.9943 33.0035 18.0188C32.7855 18.0432 32.5822 18.141 32.4271 18.2961L31.5832 19.14L30.2148 17.7716L31.0587 16.9277C31.2141 16.7725 31.312 16.5691 31.3365 16.3508C31.3609 16.1326 31.3104 15.9125 31.1932 15.7268C30.7285 14.9913 30.3924 14.1819 30.1994 13.3335C30.1506 13.1195 30.0306 12.9285 29.859 12.7916C29.6874 12.6548 29.4743 12.5804 29.2548 12.5806H28.0645V10.6452H29.2548C29.4743 10.6454 29.6874 10.571 29.859 10.4342C30.0306 10.2973 30.1506 10.1063 30.1994 9.89226ZM20.3226 7.74194C20.3226 7.48527 20.4245 7.23913 20.606 7.05764C20.7875 6.87615 21.0337 6.77419 21.2903 6.77419H28.7971L29.1658 7.1429C28.9033 7.64499 28.6857 8.16929 28.5155 8.70968H23.2258C22.9691 8.70968 22.723 8.81164 22.5415 8.99312C22.36 9.17461 22.2581 9.42076 22.2581 9.67742V13.5484H20.3226V7.74194ZM1.93548 15.4839H23.2258V25.1613H1.93548V15.4839ZM20.3226 27.0968H22.2581V29.0323H20.3226V27.0968ZM58.0645 33.871C58.0645 34.1276 57.9626 34.3738 57.7811 34.5553C57.5996 34.7368 57.3534 34.8387 57.0968 34.8387H18.3871C18.1304 34.8387 17.8843 34.7368 17.7028 34.5553C17.5213 34.3738 17.4194 34.1276 17.4194 33.871V30.9677H58.0645V33.871Z" fill="#3F5AF3"/>
<path d="M37.7419 17.4194C38.8903 17.4194 40.013 17.0788 40.9678 16.4408C41.9227 15.8028 42.6669 14.8959 43.1064 13.8349C43.5459 12.7739 43.6609 11.6065 43.4368 10.4801C43.2128 9.35378 42.6598 8.31917 41.8477 7.50712C41.0357 6.69508 40.0011 6.14206 38.8747 5.91802C37.7484 5.69398 36.5809 5.80896 35.5199 6.24844C34.4589 6.68792 33.5521 7.43215 32.914 8.38701C32.276 9.34188 31.9355 10.4645 31.9355 11.6129C31.937 13.1524 32.5493 14.6284 33.6379 15.717C34.7264 16.8056 36.2024 17.4178 37.7419 17.4194ZM37.7419 7.74194C38.5075 7.74194 39.256 7.96896 39.8925 8.39431C40.5291 8.81966 41.0253 9.42422 41.3182 10.1315C41.6112 10.8389 41.6879 11.6172 41.5385 12.3681C41.3892 13.119 41.0205 13.8087 40.4791 14.3501C39.9378 14.8915 39.248 15.2601 38.4971 15.4095C37.7462 15.5589 36.9679 15.4822 36.2606 15.1892C35.5532 14.8962 34.9487 14.4001 34.5233 13.7635C34.098 13.1269 33.871 12.3785 33.871 11.6129C33.871 10.5863 34.2788 9.60166 35.0047 8.87572C35.7307 8.14977 36.7153 7.74194 37.7419 7.74194Z" fill="#3F5AF3"/>
<path d="M7.05774 16.7352L4.15452 19.6384C3.97309 19.8199 3.87117 20.066 3.87117 20.3226C3.87117 20.5792 3.97309 20.8253 4.15452 21.0068L7.05774 23.91L8.42613 22.5416L6.2071 20.3226L8.42613 18.1035L7.05774 16.7352Z" fill="#3F5AF3"/>
<path d="M18.1035 16.7352L16.7352 18.1035L18.9542 20.3226L16.7352 22.5416L18.1035 23.91L21.0068 21.0068C21.1882 20.8253 21.2901 20.5792 21.2901 20.3226C21.2901 20.066 21.1882 19.8199 21.0068 19.6384L18.1035 16.7352Z" fill="#3F5AF3"/>
<path d="M13.6509 16.0186L9.78002 23.7603L11.5112 24.6259L15.382 16.8842L13.6509 16.0186Z" fill="#3F5AF3"/>
</svg>
