<svg width="60" height="61" viewBox="0 0 60 61" fill="none" xmlns="http://www.w3.org/2000/svg">
<path d="M10.998 0.563477C9.35339 0.563477 8 1.91686 8 3.56156V35.5616C8 36.8962 10.0019 36.8962 10.0019 35.5616V10.5674H49.9961V35.5616C49.9658 36.9252 52.0267 36.9252 51.9961 35.5616V3.56156C51.9961 1.91686 50.6447 0.563477 49 0.563477H10.998ZM10.998 2.56547H49C49.5713 2.56547 49.9961 2.99025 49.9961 3.56156V8.56544H10.0019V3.56156C10.0019 2.99025 10.4268 2.56547 10.998 2.56547ZM13 4.56354C12.4477 4.56354 12 5.01129 12 5.56355C12 6.11586 12.4477 6.56345 13 6.56345C13.5523 6.56345 14 6.11586 14 5.56355C14 5.01129 13.5523 4.56354 13 4.56354ZM17 4.56354C16.4477 4.56354 16 5.01129 16 5.56355C16 6.11586 16.4477 6.56345 17 6.56345C17.5523 6.56345 18 6.11586 18 5.56355C18 5.01129 17.5523 4.56354 17 4.56354ZM21 4.56354C20.4477 4.56354 20 5.01129 20 5.56355C20 6.11586 20.4477 6.56345 21 6.56345C21.5523 6.56345 22 6.11586 22 5.56355C22 5.01129 21.5523 4.56354 21 4.56354ZM34.9492 4.5655C33.5991 4.65734 33.6912 6.5986 34.9961 6.56553H47C48.3041 6.53529 48.3041 4.59441 47 4.5655H34.9492ZM3.00391 6.56553C1.35921 6.56553 0 7.91695 0 9.56165V45.5635C0 47.2082 1.35921 48.5616 3.00391 48.5616H57.0019C58.6466 48.5616 60 47.2082 60 45.5635V9.56154C60 7.91684 58.6466 6.56541 57.0019 6.56541H55.0019C53.6387 6.53518 53.6387 8.59568 55.0019 8.56544H57.0019C57.5733 8.56544 57.998 8.99022 57.998 9.56154V38.5654H2V9.56154C2 8.99022 2.43263 8.56544 3.00391 8.56544H4.99609C6.35933 8.59568 6.35933 6.53518 4.99609 6.56541L3.00391 6.56553ZM33.0117 14.5479C32.5721 14.5449 32.1822 14.8296 32.0508 15.2492L26.0488 33.2471C25.6256 34.5128 27.5241 35.1475 27.9473 33.8819L33.9492 15.878C34.1756 15.2305 33.6976 14.5524 33.0117 14.5479ZM37.3594 20.3292L42.4375 24.5655L37.3594 28.796C36.2743 29.6454 37.6141 31.2483 38.6426 30.3312L44.6367 25.3331C45.1154 24.9333 45.1154 24.1978 44.6367 23.798L38.6426 18.7921C38.4634 18.6387 38.2358 18.5536 37.9492 18.5539C37.004 18.6367 36.6612 19.7642 37.3594 20.3292ZM21.9746 18.5558C21.7494 18.5634 21.5333 18.6465 21.3613 18.792L15.3613 23.7979C14.8827 24.1977 14.8827 24.9332 15.3613 25.3329L21.3613 30.3311C22.3932 31.2922 23.7714 29.6358 22.6387 28.7959L17.5605 24.5653L22.6387 20.3291C23.3776 19.7241 22.9291 18.5267 21.9746 18.5558ZM2 40.5674H57.998V45.5635C57.998 46.1348 57.5733 46.5596 57.0019 46.5596H3.00391C2.43263 46.5596 2 46.1348 2 45.5635V40.5674ZM32.0547 42.5655L27.9512 42.5675C26.6765 42.7198 26.7621 44.5255 27.9981 44.5597H32C33.3733 44.681 33.4877 42.5931 32.0547 42.5655ZM24.3906 50.4834C23.9892 50.4758 23.6216 50.7071 23.457 51.0732C22.9755 52.1061 22.1127 53.3122 20.623 54.5615H19C17.3553 54.5615 16.0039 55.9228 16.0039 57.5675V59.5597C16.0019 60.1119 16.4477 60.5613 17 60.5635H42.998C43.5534 60.5655 44.0041 60.115 44.0019 59.5597V57.5675C44.0019 55.9228 42.6427 54.5615 40.998 54.5615H39.3769C37.8874 53.3123 37.0245 52.106 36.543 51.0732C36.3736 50.6976 35.9915 50.4643 35.5801 50.4853C34.8657 50.5231 34.4195 51.2748 34.7305 51.919C35.1203 52.7552 35.7156 53.652 36.5176 54.5615H23.4824C24.2844 53.652 24.8797 52.7552 25.2695 51.919C25.587 51.2632 25.1191 50.4989 24.3906 50.4834ZM19 56.5635H40.998C41.5693 56.5635 42.0019 56.9962 42.0019 57.5675V58.5636H18.0039V57.5675C18.0039 56.9962 18.4287 56.5635 19 56.5635Z" fill="#3F5AF3"/>
</svg>
