<svg width="61" height="46" viewBox="0 0 61 46" fill="none" xmlns="http://www.w3.org/2000/svg">
<path d="M5.48315 42.2794C2.05618 38.5588 0 34.5 0 27.7353C0 15.8971 8.56742 5.41176 20.5618 0L23.6461 4.39706C12.3371 10.4853 9.9382 18.2647 9.25281 23.3382C10.9663 22.3235 13.3652 21.9853 15.764 22.3235C21.9326 23 26.7303 27.7353 26.7303 34.1618C26.7303 37.2059 25.3596 40.25 23.3034 42.6176C20.9045 44.9853 18.1629 46 14.736 46C10.9663 46 7.53933 44.3088 5.48315 42.2794ZM39.7528 42.2794C36.3258 38.5588 34.2697 34.5 34.2697 27.7353C34.2697 15.8971 42.8371 5.41176 54.8315 0L57.9157 4.39706C46.6067 10.4853 44.2079 18.2647 43.5225 23.3382C45.236 22.3235 47.6348 21.9853 50.0337 22.3235C56.2023 23 61 27.7353 61 34.1618C61 37.2059 59.6292 40.25 57.573 42.6176C55.5169 44.9853 52.4326 46 49.0056 46C45.236 46 41.809 44.3088 39.7528 42.2794Z" fill="white" fill-opacity="0.1"/>
</svg>
