<svg width="31" height="30" viewBox="0 0 31 30" fill="none" xmlns="http://www.w3.org/2000/svg">
<path d="M30.5466 0.936824C30.5272 0.486118 30.1756 0.120132 29.726 0.0827573L29.698 0.0804288C26.6518 -0.170746 23.6306 0.167059 20.7184 1.08435C17.7421 2.02195 15.0228 3.51664 12.6362 5.52699C12.2221 5.87579 11.8228 6.23807 11.4363 6.61158C10.4879 6.04105 9.38068 5.77005 8.26385 5.84498C6.94929 5.93316 5.71168 6.49528 4.77916 7.42779L0.26231 11.9447C-0.0874366 12.2945 -0.0874366 12.8615 0.26231 13.2112L0.793258 13.7422C2.25046 15.1994 4.16409 16.0145 6.18161 16.0682L5.84369 18.2758C5.80052 18.5576 5.89414 18.843 6.0957 19.0446L10.9554 23.9043C11.1246 24.0735 11.3529 24.1666 11.5886 24.1666C11.6336 24.1666 11.679 24.1632 11.7241 24.1563L13.9324 23.8182C13.9863 25.8358 14.801 27.7499 16.2578 29.2067L16.7888 29.7377C16.9636 29.9126 17.1928 30 17.422 30C17.6511 30 17.8804 29.9126 18.0552 29.7377L22.572 25.2208C24.3102 23.4826 24.6566 20.8455 23.4924 18.7432C23.9476 18.2981 24.387 17.8343 24.8079 17.3501C26.777 15.0843 28.276 12.4981 29.2633 9.66341C30.2427 6.85183 30.6744 3.91576 30.5466 0.936824ZM28.7769 1.81537C28.7897 3.80746 28.5301 5.77441 28.0033 7.68792L22.7062 2.39092C24.6936 1.91221 26.7271 1.71889 28.7769 1.81537ZM2.16317 12.5768L6.04561 8.69436C7.13682 7.60314 8.79194 7.3368 10.1508 7.95558C8.83719 9.44466 7.71899 11.0957 6.81119 12.8921L6.66981 13.1719C6.62718 13.2562 6.59817 13.3469 6.5839 13.4403L6.45554 14.279C4.85881 14.2932 3.33247 13.6938 2.16317 12.5768ZM7.68281 18.0987L8.05895 15.6415C8.08886 15.6004 8.11591 15.5573 8.13859 15.5117L14.4938 21.8669C14.4514 21.8876 14.4112 21.9119 14.3727 21.9389L11.9013 22.3172L7.68281 18.0987ZM21.3056 23.9544L17.4232 27.8368C16.3065 26.6679 15.7069 25.141 15.7211 23.5444L16.5597 23.4161C16.6532 23.4018 16.7437 23.3728 16.8281 23.3302L17.6771 22.9012C19.2719 22.0954 20.753 21.1214 22.1092 19.9922C22.6567 21.3282 22.3685 22.8915 21.3056 23.9544ZM16.8693 21.3025L16.599 21.4391L8.56398 13.4042C11.1274 8.5233 15.5294 4.75066 20.7439 2.96145L27.3815 9.59899C25.4605 14.696 21.7456 18.8384 16.8693 21.3025Z" fill="white"/>
<path d="M15.8894 9.41827C14.4976 10.8101 14.4976 13.075 15.8894 14.4669C16.5854 15.1628 17.4996 15.5108 18.4137 15.5108C19.3279 15.5108 20.2421 15.1628 20.938 14.4668C22.3299 13.075 22.3299 10.8101 20.938 9.41827C19.5461 8.02639 17.2813 8.02639 15.8894 9.41827ZM19.6715 13.2003C18.978 13.8939 17.8495 13.8939 17.1559 13.2003C16.4624 12.5068 16.4624 11.3783 17.1559 10.6847C17.5028 10.3379 17.9582 10.1646 18.4137 10.1646C18.8693 10.1646 19.3248 10.3379 19.6715 10.6847C20.365 11.3784 20.365 12.5068 19.6715 13.2003Z" fill="white"/>
<path d="M7.3505 22.8968C7.00081 22.5471 6.43374 22.547 6.084 22.8968L3.20238 25.7784C2.85263 26.1282 2.85263 26.6952 3.20238 27.0449C3.37725 27.2198 3.60646 27.3072 3.8356 27.3072C4.06474 27.3072 4.29401 27.2198 4.46882 27.0449L7.35044 24.1632C7.70031 23.8136 7.70031 23.2465 7.3505 22.8968Z" fill="white"/>
<path d="M4.78537 20.3316C4.43569 19.9819 3.86862 19.9819 3.51887 20.3316L0.637192 23.2133C0.287445 23.5631 0.287445 24.1301 0.637192 24.4798C0.812065 24.6547 1.04127 24.7421 1.27041 24.7421C1.49956 24.7421 1.72882 24.6547 1.90364 24.4798L4.78531 21.5981C5.13512 21.2484 5.13512 20.6814 4.78537 20.3316Z" fill="white"/>
<path d="M8.64924 25.462L5.76756 28.3437C5.41782 28.6934 5.41782 29.2604 5.76756 29.6102C5.94244 29.7851 6.17164 29.8725 6.40079 29.8725C6.62993 29.8725 6.85919 29.7851 7.03401 29.6102L9.91569 26.7285C10.2654 26.3788 10.2654 25.8118 9.91569 25.462C9.566 25.1122 8.99899 25.1122 8.64924 25.462Z" fill="white"/>
</svg>
