<svg width="36" height="35" viewBox="0 0 36 35" fill="none" xmlns="http://www.w3.org/2000/svg">
<path d="M34.12 14.4314L31.5049 14.1043C31.199 12.9387 30.7379 11.8273 30.128 10.7855L31.7474 8.70335C32.065 8.29495 32.0288 7.71402 31.663 7.34829L28.7624 4.44765C28.3966 4.08186 27.8157 4.04575 27.4073 4.36327L25.325 5.9827C24.2829 5.3727 23.1714 4.91165 22.0062 4.60576L21.6791 1.99063C21.6149 1.47733 21.1786 1.09219 20.6612 1.09219H17.5117C17.2191 1.09219 16.9557 1.21542 16.7688 1.41203C13.7075 -1.45216 8.53568 0.291394 7.79302 4.39089C3.52494 4.21979 0.738375 9.04398 3.00631 12.6492C-0.99841 14.7278 -1.0058 20.2622 3.00631 22.3508C0.738102 25.9575 3.52563 30.78 7.79302 30.6091C8.5365 34.7105 13.7087 36.4511 16.7688 33.5881C16.9557 33.7847 17.2191 33.908 17.5117 33.908H20.6612C21.1785 33.908 21.6149 33.5228 21.6791 33.0095L22.0062 30.3944C23.1718 30.0885 24.2833 29.6274 25.3251 29.0175L27.4073 30.6369C27.8156 30.9544 28.3965 30.9184 28.7623 30.5525L31.663 27.6519C32.0287 27.2861 32.0649 26.7051 31.7473 26.2968L30.1279 24.2146C30.7379 23.1723 31.199 22.0611 31.5048 20.8959L34.1199 20.5687C34.6332 20.5046 35.0183 20.0682 35.0183 19.5509V15.4493C35.0184 14.932 34.6333 14.4956 34.12 14.4314ZM16.486 16.4743H13.6662C11.8085 16.4743 10.2971 14.9629 10.2971 13.1051C10.2971 12.5386 9.83781 12.0793 9.2713 12.0793C8.7048 12.0793 8.24552 12.5386 8.24552 13.1051C8.24552 14.9123 9.13529 16.5145 10.4988 17.5C9.13522 18.4855 8.24552 20.0878 8.24552 21.895C8.24552 22.4615 8.7048 22.9207 9.2713 22.9207C9.83781 22.9207 10.2971 22.4615 10.2971 21.895C10.2971 20.0372 11.8085 18.5258 13.6662 18.5258H16.486V29.586C16.486 31.4438 14.9746 32.9551 13.1168 32.9551C8.65262 32.7851 8.65515 26.3856 13.1169 26.2169C13.6834 26.2169 14.1426 25.7577 14.1426 25.1911C14.1426 24.6246 13.6833 24.1654 13.1168 24.1654C10.4805 24.1654 8.27883 26.0575 7.79575 28.5548C4.59976 28.7172 3.00549 24.7005 5.43885 22.627C5.74467 22.3661 5.86995 21.9504 5.7591 21.5638C5.64831 21.1773 5.32184 20.8912 4.92418 20.832C1.12687 20.1781 1.1294 14.8206 4.92418 14.168C5.32184 14.1088 5.64831 13.8227 5.7591 13.4362C5.86995 13.0497 5.74467 12.634 5.43878 12.373C3.00474 10.2988 4.60099 6.28244 7.79568 6.44526C8.27876 8.94263 10.4804 10.8347 13.1168 10.8347C13.6833 10.8347 14.1425 10.3754 14.1425 9.80894C14.1425 9.24243 13.6833 8.78315 13.1168 8.78315C11.259 8.78315 9.74761 7.27177 9.74761 5.41401C9.91638 0.951655 16.3169 0.950834 16.4858 5.41401V16.4743H16.486ZM18.5375 11.9349C26.0084 12.1278 26.0045 22.8741 18.5375 23.065V11.9349ZM32.9669 18.6454L30.5411 18.9489C30.1044 19.0035 29.7512 19.3306 29.6633 19.7619C29.3751 21.176 28.8235 22.5055 28.0238 23.7136C27.7808 24.0807 27.7992 24.5619 28.0694 24.9095L29.572 26.8416L27.9519 28.4615L26.0199 26.959C25.6723 26.6886 25.191 26.6701 24.8238 26.9135C23.6165 27.713 22.287 28.2646 20.8723 28.5528C20.441 28.6407 20.1139 28.9939 20.0592 29.4306L19.7557 31.8565H18.5375V25.1179C28.7272 24.816 28.7218 10.1815 18.5375 9.88224V3.14361H19.7557L20.0592 5.56945C20.1139 6.00616 20.441 6.35937 20.8723 6.44724C22.2863 6.73535 23.6158 7.28695 24.8239 8.08672C25.191 8.32969 25.6723 8.31143 26.0199 8.0411L27.9519 6.53854L29.5719 8.15852L28.0694 10.0905C27.799 10.4381 27.7807 10.9195 28.0238 11.2867C28.8233 12.4939 29.3748 13.8234 29.6632 15.2382C29.7511 15.6695 30.1043 15.9966 30.541 16.0512L32.9668 16.3547V18.6454H32.9669Z" fill="white"/>
</svg>
